<?xml version="1.0" encoding="UTF-8" standalone="no"?>
<svg width="118px" height="118px" viewBox="0 0 118 118" version="1.1" xmlns="http://www.w3.org/2000/svg" xmlns:xlink="http://www.w3.org/1999/xlink">
    <!-- Generator: sketchtool 41 (35326) - http://www.bohemiancoding.com/sketch -->
    <title>6D2B9D67-6A58-4BA0-90E9-DE6ED4C3140A</title>
    <desc>Created with sketchtool.</desc>
    <defs>
        <path d="M76,50 C76,42.26 67.94,34 58,34 C48.06,34 40,42.26 40,50 C40,57.74 48.06,64 58,64 C67.94,64 76,57.74 76,50 M78.96,66.08 C73.46,69.78 66.34,72 58,72 C49.58,72 42.42,69.74 36.9,66 C28.66,60.42 24,51.56 24,42 C24,35.78 25.32,29.6 28,24 C29.12,21.3 32,17.4 32,17.4 C34.16,14.5 36.72,11.92 39.66,9.82 C44.74,6.2 50.92,4 58,4 C65.04,4 71.18,6.16 76.22,9.74 C79.2,11.84 81.82,14.46 84,17.42 L88,24 C90.7,29.62 92,35.76 92,42 C92,51.62 87.28,60.54 78.96,66.08 Z M116,72 C116,84 78,76 78,76 C78,76 82,80 82,84.66 C80.74,84.24 79.4,84 78,84 C70.26,84 64,91.16 64,100 C64,102.14 64.36,104.18 65.04,106.06 C64.68,106.36 62.56,108 58,108 C53,108 51.08,106 51.08,106 L50.98,105.98 C51.64,104.12 52,102.12 52,100 C52,91.16 45.74,84 38,84 C36.6,84 35.26,84.24 34,84.66 C34,80 38,76 38,76 C38,76 0,84 0,72 C0,60 24,64 24,64 C24,64 31.34,64.66 36.84,66.08 L36.9,66 C42.42,69.74 49.58,72 58,72 C66.34,72 73.46,69.78 78.96,66.08 C85.44,64.48 92,64 92,64 C92,64 116,60 116,72 Z" id="path-1"></path>
        <filter x="-50%" y="-50%" width="200%" height="200%" filterUnits="objectBoundingBox" id="filter-2">
            <feOffset dx="-6" dy="0" in="SourceAlpha" result="shadowOffsetInner1"></feOffset>
            <feComposite in="shadowOffsetInner1" in2="SourceAlpha" operator="arithmetic" k2="-1" k3="1" result="shadowInnerInner1"></feComposite>
            <feColorMatrix values="0 0 0 0 0   0 0 0 0 0   0 0 0 0 0  0 0 0 0.12 0" type="matrix" in="shadowInnerInner1"></feColorMatrix>
        </filter>
        <path d="M58,34 C67.94,34 76,42.26 76,50 C76,57.74 67.94,64 58,64 C48.06,64 40,57.74 40,50 C40,42.26 48.06,34 58,34" id="path-3"></path>
        <filter x="-50%" y="-50%" width="200%" height="200%" filterUnits="objectBoundingBox" id="filter-4">
            <feOffset dx="-6" dy="0" in="SourceAlpha" result="shadowOffsetInner1"></feOffset>
            <feComposite in="shadowOffsetInner1" in2="SourceAlpha" operator="arithmetic" k2="-1" k3="1" result="shadowInnerInner1"></feComposite>
            <feColorMatrix values="0 0 0 0 0   0 0 0 0 0   0 0 0 0 0  0 0 0 0.1 0" type="matrix" in="shadowInnerInner1"></feColorMatrix>
        </filter>
        <path d="M62,42 C62,44 60,46 58,46 C56,46 54,44 54,42 C54,40 62,40 62,42" id="path-5"></path>
        <filter x="-50%" y="-50%" width="200%" height="200%" filterUnits="objectBoundingBox" id="filter-6">
            <feOffset dx="-6" dy="0" in="SourceAlpha" result="shadowOffsetInner1"></feOffset>
            <feComposite in="shadowOffsetInner1" in2="SourceAlpha" operator="arithmetic" k2="-1" k3="1" result="shadowInnerInner1"></feComposite>
            <feColorMatrix values="0 0 0 0 0   0 0 0 0 0   0 0 0 0 0  0 0 0 0.12 0" type="matrix" in="shadowInnerInner1"></feColorMatrix>
        </filter>
        <path d="M52,100 C52,102.12 51.64,104.12 50.98,105.98 C48.92,111.86 43.88,116 38,116 C30.26,116 24,108.84 24,100 C24,92.76 28.22,86.64 34,84.66 C35.26,84.24 36.6,84 38,84 C45.74,84 52,91.16 52,100 Z M65.04,106.06 C64.36,104.18 64,102.14 64,100 C64,91.16 70.26,84 78,84 C79.4,84 80.74,84.24 82,84.66 C87.78,86.64 92,92.76 92,100 C92,108.84 85.74,116 78,116 C72.14,116 67.12,111.9 65.04,106.06 Z" id="path-7"></path>
        <filter x="-50%" y="-50%" width="200%" height="200%" filterUnits="objectBoundingBox" id="filter-8">
            <feOffset dx="-6" dy="0" in="SourceAlpha" result="shadowOffsetInner1"></feOffset>
            <feComposite in="shadowOffsetInner1" in2="SourceAlpha" operator="arithmetic" k2="-1" k3="1" result="shadowInnerInner1"></feComposite>
            <feColorMatrix values="0 0 0 0 0   0 0 0 0 0   0 0 0 0 0  0 0 0 0.1 0" type="matrix" in="shadowInnerInner1"></feColorMatrix>
        </filter>
        <path d="M88,0 C94.62,0 100,5.38 100,12 C100,18.62 94.62,24 88,24 L84,17.42 C81.82,14.46 79.2,11.84 76.22,9.74 C77.22,4.12 82.1,0 88,0 Z M28,0 C33.94,0 38.7,4.14 39.66,9.82 C36.72,11.92 34.16,14.5 32,17.4 C32,17.4 29.12,21.3 28,24 C21.38,24 16,18.62 16,12 C16,5.38 21.38,0 28,0 Z" id="path-9"></path>
        <filter x="-50%" y="-50%" width="200%" height="200%" filterUnits="objectBoundingBox" id="filter-10">
            <feOffset dx="-6" dy="0" in="SourceAlpha" result="shadowOffsetInner1"></feOffset>
            <feComposite in="shadowOffsetInner1" in2="SourceAlpha" operator="arithmetic" k2="-1" k3="1" result="shadowInnerInner1"></feComposite>
            <feColorMatrix values="0 0 0 0 0   0 0 0 0 0   0 0 0 0 0  0 0 0 0.1 0" type="matrix" in="shadowInnerInner1"></feColorMatrix>
        </filter>
        <path d="M38,96 C41.32,96 44,98.68 44,102 C44,105.32 41.32,108 38,108 C34.68,108 32,105.32 32,102 C32,98.68 34.68,96 38,96 Z M78,96 C81.32,96 84,98.68 84,102 C84,105.32 81.32,108 78,108 C74.68,108 72,105.32 72,102 C72,98.68 74.68,96 78,96 Z" id="path-11"></path>
        <filter x="-50%" y="-50%" width="200%" height="200%" filterUnits="objectBoundingBox" id="filter-12">
            <feOffset dx="-6" dy="0" in="SourceAlpha" result="shadowOffsetInner1"></feOffset>
            <feComposite in="shadowOffsetInner1" in2="SourceAlpha" operator="arithmetic" k2="-1" k3="1" result="shadowInnerInner1"></feComposite>
            <feColorMatrix values="0 0 0 0 0   0 0 0 0 0   0 0 0 0 0  0 0 0 0.08 0" type="matrix" in="shadowInnerInner1"></feColorMatrix>
        </filter>
    </defs>
    <g id="Design" stroke="none" stroke-width="1" fill="none" fill-rule="evenodd">
        <g id="2.1-Services" transform="translate(-121.000000, -1446.000000)">
            <g id="Group-5-Copy-7" transform="translate(8.000000, 1430.000000)">
                <g id="Group-4">
                    <g id="card1">
                        <g id="Group-14">
                            <g id="Group" transform="translate(114.000000, 17.000000)">
                                <g id="fill">
                                    <g id="Combined-Shape">
                                        <use fill="#AE938D" fill-rule="evenodd" xlink:href="#path-1"></use>
                                        <use fill="black" fill-opacity="1" filter="url(#filter-2)" xlink:href="#path-1"></use>
                                    </g>
                                    <g id="Fill-7">
                                        <use fill="#FFD0A1" fill-rule="evenodd" xlink:href="#path-3"></use>
                                        <use fill="black" fill-opacity="1" filter="url(#filter-4)" xlink:href="#path-3"></use>
                                    </g>
                                    <g id="Fill-3">
                                        <use fill="#AAB1BA" fill-rule="evenodd" xlink:href="#path-5"></use>
                                        <use fill="black" fill-opacity="1" filter="url(#filter-6)" xlink:href="#path-5"></use>
                                    </g>
                                    <g id="Combined-Shape">
                                        <use fill="#FFD0A1" fill-rule="evenodd" xlink:href="#path-7"></use>
                                        <use fill="black" fill-opacity="1" filter="url(#filter-8)" xlink:href="#path-7"></use>
                                    </g>
                                    <g id="Combined-Shape">
                                        <use fill="#FFD0A1" fill-rule="evenodd" xlink:href="#path-9"></use>
                                        <use fill="black" fill-opacity="1" filter="url(#filter-10)" xlink:href="#path-9"></use>
                                    </g>
                                    <g id="Combined-Shape">
                                        <use fill="#F2EDDA" fill-rule="evenodd" xlink:href="#path-11"></use>
                                        <use fill="black" fill-opacity="1" filter="url(#filter-12)" xlink:href="#path-11"></use>
                                    </g>
                                </g>
                                <path d="M82,84.664 C82,80 78,76 78,76 C78,76 116,84 116,72 C116,60 92,64 92,64 M24,64 C24,64 0,60 0,72 C0,84 38,76 38,76 C38,76 34,80 34,84.664 M51.082,106 C51.082,106 53,108 58,108 C63.042,108 65.094,106 65.094,106 M30.828,9.172 C29.266,7.61 26.734,7.61 25.172,9.172 C23.61,10.734 23.61,13.268 25.172,14.83 M90.828,14.83 C92.39,13.268 92.39,10.734 90.828,9.172 C89.266,7.61 86.734,7.61 85.172,9.172 M54,42 C54,44 56,46 58,46 C60,46 62,44 62,42 C62,40 54,40 54,42 L54,42 L54,42 L54,42 L54,42 L54,42 L54,42 L54,42 L54,42 L54,42 Z M44,102 C44,98.688 41.314,96 38,96 C34.686,96 32,98.688 32,102 C32,105.314 34.686,108 38,108 C41.314,108 44,105.314 44,102 L44,102 L44,102 L44,102 L44,102 L44,102 L44,102 L44,102 L44,102 L44,102 Z M84,102 C84,98.688 81.314,96 78,96 C74.686,96 72,98.688 72,102 C72,105.314 74.686,108 78,108 C81.314,108 84,105.314 84,102 L84,102 L84,102 L84,102 L84,102 L84,102 L84,102 L84,102 L84,102 L84,102 Z M52,100 C52,91.164 45.73,84 38,84 C30.27,84 24,91.164 24,100 C24,108.838 30.27,116 38,116 C45.73,116 52,108.838 52,100 L52,100 L52,100 L52,100 L52,100 L52,100 L52,100 L52,100 L52,100 L52,100 Z M92,100 C92,91.164 85.73,84 78,84 C70.27,84 64,91.164 64,100 C64,108.838 70.27,116 78,116 C85.73,116 92,108.838 92,100 L92,100 L92,100 L92,100 L92,100 L92,100 L92,100 L92,100 L92,100 L92,100 Z M39.66,9.822 C38.708,4.146 33.946,0 28,0 C21.374,0 16,5.374 16,12 C16,18.628 21.374,24 28,24 C25.32,29.61 24,35.772 24,42 C24,58 37.014,72 58,72 C78.986,72 92,58 92,42 C92,35.752 90.698,29.624 88,24 C94.626,24 100,18.628 100,12 C100,5.374 94.626,0 88,0 C82.108,0 77.228,4.128 76.214,9.732 M84.006,17.414 C78.114,9.466 69.192,4 58,4 C50.912,4 44.734,6.194 39.66,9.822 C36.726,11.918 34.16,14.496 32,17.408 M48,52 C54,58 58,48 58,48 C58,48 62,58 68,52 M46,27 C46,26.448 45.552,26 45,26 C44.448,26 44,26.448 44,27 C44,27.554 44.448,28 45,28 C45.552,28 46,27.554 46,27 L46,27 L46,27 L46,27 L46,27 L46,27 L46,27 L46,27 L46,27 L46,27 Z M72,27 C72,26.448 71.552,26 71,26 C70.448,26 70,26.448 70,27 C70,27.554 70.448,28 71,28 C71.552,28 72,27.554 72,27 L72,27 L72,27 L72,27 L72,27 L72,27 L72,27 L72,27 L72,27 L72,27 Z M58,64 C48.058,64 40,57.734 40,50 C40,42.268 48.058,34 58,34 C67.942,34 76,42.268 76,50 C76,57.734 67.942,64 58,64 L58,64 L58,64 L58,64 L58,64 L58,64 L58,64 L58,64 L58,64 L58,64 Z" id="stroke" stroke="#51565F" stroke-width="2" stroke-linecap="round" stroke-linejoin="round"></path>
                            </g>
                        </g>
                    </g>
                </g>
            </g>
        </g>
    </g>
</svg>