<?xml version="1.0" encoding="UTF-8" standalone="no"?>
<svg width="118px" height="118px" viewBox="0 0 118 118" version="1.1" xmlns="http://www.w3.org/2000/svg" xmlns:xlink="http://www.w3.org/1999/xlink">
    <!-- Generator: sketchtool 41 (35326) - http://www.bohemiancoding.com/sketch -->
    <title>715640B6-E761-436B-A347-CA9D2DA40319</title>
    <desc>Created with sketchtool.</desc>
    <defs>
        <path d="M80,16 L80,24 L72,24 L72,16 C72,11.58 68.42,8 64,8 L52,8 C47.58,8 44,11.58 44,16 L44,24 L36,24 L36,16 C36,7.76 43.68,0 52,0 L64,0 C72.44,0 80,7.62 80,16" id="path-1"></path>
        <filter x="-50%" y="-50%" width="200%" height="200%" filterUnits="objectBoundingBox" id="filter-2">
            <feOffset dx="-6" dy="0" in="SourceAlpha" result="shadowOffsetInner1"></feOffset>
            <feComposite in="shadowOffsetInner1" in2="SourceAlpha" operator="arithmetic" k2="-1" k3="1" result="shadowInnerInner1"></feComposite>
            <feColorMatrix values="0 0 0 0 0   0 0 0 0 0   0 0 0 0 0  0 0 0 0.12 0" type="matrix" in="shadowInnerInner1"></feColorMatrix>
        </filter>
        <path d="M24,48 L24,58 C24,59.1 23.1,60 22,60 L18,60 C16.9,60 16,59.1 16,58 L16,48 L16,38 C16,36.9 16.9,36 18,36 L22,36 C23.1,36 24,36.9 24,38 L24,48 Z M100,48 L100,58 C100,59.1 99.1,60 98,60 L94,60 C92.9,60 92,59.1 92,58 L92,48 L92,38 C92,36.9 92.9,36 94,36 L98,36 C99.1,36 100,36.9 100,38 L100,48 Z" id="path-3"></path>
        <filter x="-50%" y="-50%" width="200%" height="200%" filterUnits="objectBoundingBox" id="filter-4">
            <feOffset dx="-6" dy="0" in="SourceAlpha" result="shadowOffsetInner1"></feOffset>
            <feComposite in="shadowOffsetInner1" in2="SourceAlpha" operator="arithmetic" k2="-1" k3="1" result="shadowInnerInner1"></feComposite>
            <feColorMatrix values="0 0 0 0 0   0 0 0 0 0   0 0 0 0 0  0 0 0 0.12 0" type="matrix" in="shadowInnerInner1"></feColorMatrix>
        </filter>
        <path d="M112,48 L100,48 L100,38 C100,36.9 99.1,36 98,36 L94,36 C92.9,36 92,36.9 92,38 L92,48 L24,48 L24,38 C24,36.9 23.1,36 22,36 L18,36 C16.9,36 16,36.9 16,38 L16,48 L4,48 C1.66,48 0,46.34 0,44 L0,32 C0,27.58 3.58,24 8,24 L36,24 L44,24 L72,24 L80,24 L108,24 C112.42,24 116,27.58 116,32 L116,44 C116,46.34 114.3,48 112,48 Z M112,108 C112,112.42 108.42,116 104,116 L12,116 C7.58,116 4,112.42 4,108 L4,48 L16,48 L16,58 C16,59.1 16.9,60 18,60 L22,60 C23.1,60 24,59.1 24,58 L24,48 L92,48 L92,58 C92,59.1 92.9,60 94,60 L98,60 C99.1,60 100,59.1 100,58 L100,48 L112,48 L112,108 Z" id="path-5"></path>
        <filter x="-50%" y="-50%" width="200%" height="200%" filterUnits="objectBoundingBox" id="filter-6">
            <feOffset dx="-6" dy="0" in="SourceAlpha" result="shadowOffsetInner1"></feOffset>
            <feComposite in="shadowOffsetInner1" in2="SourceAlpha" operator="arithmetic" k2="-1" k3="1" result="shadowInnerInner1"></feComposite>
            <feColorMatrix values="0 0 0 0 0   0 0 0 0 0   0 0 0 0 0  0 0 0 0.08 0" type="matrix" in="shadowInnerInner1"></feColorMatrix>
        </filter>
        <polygon id="path-7" points="76 76 76 88 64 88 64 100 52 100 52 88 40 88 40 76 52 76 52 64 64 64 64 76"></polygon>
        <filter x="-50%" y="-50%" width="200%" height="200%" filterUnits="objectBoundingBox" id="filter-8">
            <feOffset dx="-6" dy="0" in="SourceAlpha" result="shadowOffsetInner1"></feOffset>
            <feComposite in="shadowOffsetInner1" in2="SourceAlpha" operator="arithmetic" k2="-1" k3="1" result="shadowInnerInner1"></feComposite>
            <feColorMatrix values="0 0 0 0 0   0 0 0 0 0   0 0 0 0 0  0 0 0 0.12 0" type="matrix" in="shadowInnerInner1"></feColorMatrix>
        </filter>
    </defs>
    <g id="Design" stroke="none" stroke-width="1" fill="none" fill-rule="evenodd">
        <g id="2.1-Services" transform="translate(-121.000000, -1075.000000)">
            <g id="Group-5-Copy-6" transform="translate(8.000000, 1062.000000)">
                <g id="Group-4">
                    <g id="card1">
                        <g id="Group-11">
                            <g id="Group" transform="translate(114.000000, 14.000000)">
                                <g id="fill">
                                    <g id="Fill-1">
                                        <use fill="#AAB1BA" fill-rule="evenodd" xlink:href="#path-1"></use>
                                        <use fill="black" fill-opacity="1" filter="url(#filter-2)" xlink:href="#path-1"></use>
                                    </g>
                                    <g id="Combined-Shape">
                                        <use fill="#AAB1BA" fill-rule="evenodd" xlink:href="#path-3"></use>
                                        <use fill="black" fill-opacity="1" filter="url(#filter-4)" xlink:href="#path-3"></use>
                                    </g>
                                    <g id="Combined-Shape">
                                        <use fill="#ECF4F7" fill-rule="evenodd" xlink:href="#path-5"></use>
                                        <use fill="black" fill-opacity="1" filter="url(#filter-6)" xlink:href="#path-5"></use>
                                    </g>
                                    <g id="Fill-9">
                                        <use fill="#FF7474" fill-rule="evenodd" xlink:href="#path-7"></use>
                                        <use fill="black" fill-opacity="1" filter="url(#filter-8)" xlink:href="#path-7"></use>
                                    </g>
                                </g>
                                <path d="M12.084,48 L16,48 L16,38 C16,36.896 16.896,36 18,36 L22,36 C23.106,36 24,36.896 24,38 L24,48 L92,48 L92,38 C92,36.896 92.896,36 94,36 L98,36 C99.106,36 100,36.896 100,38 L100,48 L112,48 C114.292,48 116,46.334 116,44 L116,32 C116,27.582 112.418,24 108,24 L8,24 C3.584,24 0,27.582 0,32 L0,44 C0,46.334 1.668,48 4,48 L4,108 C4,112.418 7.584,116 12,116 L104,116 C108.418,116 112,112.418 112,108 L112,56 M64,76 L64,64 L52,64 L52,76 L40,76 L40,88 L52,88 L52,100 L64,100 L64,88 L76,88 L76,76 L64,76 L64,76 L64,76 L64,76 L64,76 L64,76 L64,76 Z M80,16 C80,7.626 72.438,0 64,0 L52,0 C43.688,0 36,7.75 36,16 M92,56 L92,58 C92,59.104 92.896,60 94,60 L98,60 C99.106,60 100,59.104 100,58 L100,56 M16,56 L16,58 C16,59.104 16.896,60 18,60 L22,60 C23.106,60 24,59.104 24,58 L24,56 M44,16 C44,11.582 47.584,8 52,8 L64,8 C68.418,8 72,11.582 72,16" id="stroke" stroke="#51565F" stroke-width="2" stroke-linecap="round" stroke-linejoin="round"></path>
                            </g>
                        </g>
                    </g>
                </g>
            </g>
        </g>
    </g>
</svg>