<?xml version="1.0" encoding="UTF-8" standalone="no"?>
<svg width="118px" height="118px" viewBox="0 0 118 118" version="1.1" xmlns="http://www.w3.org/2000/svg" xmlns:xlink="http://www.w3.org/1999/xlink">
    <!-- Generator: sketchtool 41 (35326) - http://www.bohemiancoding.com/sketch -->
    <title>326C5686-0E62-4940-B4DD-D551312EA8AF</title>
    <desc>Created with sketchtool.</desc>
    <defs>
        <path d="M116,8 L116,60 C116,64.42 112.42,68 108,68 L56,68 L8,68 C3.58,68 0,64.42 0,60 L0,8 C0,3.58 3.58,0 8,0 L108,0 C112.42,0 116,3.58 116,8 Z" id="path-1"></path>
        <filter x="-50%" y="-50%" width="200%" height="200%" filterUnits="objectBoundingBox" id="filter-2">
            <feOffset dx="-6" dy="0" in="SourceAlpha" result="shadowOffsetInner1"></feOffset>
            <feComposite in="shadowOffsetInner1" in2="SourceAlpha" operator="arithmetic" k2="-1" k3="1" result="shadowInnerInner1"></feComposite>
            <feColorMatrix values="0 0 0 0 0   0 0 0 0 0   0 0 0 0 0  0 0 0 0.08 0" type="matrix" in="shadowInnerInner1"></feColorMatrix>
        </filter>
        <path d="M84,80 L84,86 C84,86 84,92 80,96 C76,100 70,100 70,100 L64,100 L64,94 C64,94 64,88 68,84 C72,80 78,80 78,80 L84,80 Z M48,106 L48,112 L42,112 C42,112 36,112 32,108 C28,104 28,98 28,98 L28,92 L34,92 C34,92 40,92 44,96 C48,100 48,106 48,106 Z" id="path-3"></path>
        <filter x="-50%" y="-50%" width="200%" height="200%" filterUnits="objectBoundingBox" id="filter-4">
            <feOffset dx="-6" dy="0" in="SourceAlpha" result="shadowOffsetInner1"></feOffset>
            <feComposite in="shadowOffsetInner1" in2="SourceAlpha" operator="arithmetic" k2="-1" k3="1" result="shadowInnerInner1"></feComposite>
            <feColorMatrix values="0 0 0 0 0   0 0 0 0 0   0 0 0 0 0  0 0 0 0.1 0" type="matrix" in="shadowInnerInner1"></feColorMatrix>
        </filter>
    </defs>
    <g id="Design" stroke="none" stroke-width="1" fill="none" fill-rule="evenodd">
        <g id="2.1-Services" transform="translate(-121.000000, -1259.000000)">
            <g id="Group-5-Copy-5" transform="translate(8.000000, 1246.000000)">
                <g id="Group-4">
                    <g id="card1">
                        <g id="Group-12">
                            <g id="Group" transform="translate(114.000000, 14.000000)">
                                <g id="fill">
                                    <g id="Combined-Shape">
                                        <use fill="#E4F2DE" fill-rule="evenodd" xlink:href="#path-1"></use>
                                        <use fill="black" fill-opacity="1" filter="url(#filter-2)" xlink:href="#path-1"></use>
                                    </g>
                                    <g id="Combined-Shape">
                                        <use fill="#50DD8E" fill-rule="evenodd" xlink:href="#path-3"></use>
                                        <use fill="black" fill-opacity="1" filter="url(#filter-4)" xlink:href="#path-3"></use>
                                    </g>
                                </g>
                                <path d="M70,100 C70,100 76,100 80,96 C84,92 84,86 84,86 L84,80 L78,80 C78,80 72,80 68,84 C64,88 64,94 64,94 L64,100 L70,100 L70,100 L70,100 L70,100 Z M48,112 L48,106 C48,106 48,100 44,96 C40,92 34,92 34,92 L28,92 L28,98 C28,98 28,104 32,108 C36,112 42,112 42,112 L48,112 L48,112 L48,112 L48,112 Z M64,68 L108,68 C112.418,68 116,64.418 116,60 L116,8 C116,3.582 112.418,0 108,0 L8,0 C3.582,0 0,3.582 0,8 L0,60 C0,64.418 3.582,68 8,68 L56,68 L56,116 M58,22 L58,20 L58,22 L58,22 L58,22 Z M58,48 L58,46 L58,48 L58,48 L58,48 Z M52,40 C52,43.312 54.688,46 58,46 C61.312,46 64,43.312 64,40 C64,36.688 61.312,34 58,34 C54.688,34 52,31.312 52,28 C52,24.688 54.688,22 58,22 C61.312,22 64,24.688 64,28 M96,8 C96,14.626 101.374,20 108,20 L108,48 C101.374,48 96,53.374 96,60 L20,60 C20,53.374 14.626,48 8,48 L8,20 C14.626,20 20,14.626 20,8 L96,8 L96,8 L96,8 L96,8 Z" id="stroke" stroke="#51565F" stroke-width="2" stroke-linecap="round" stroke-linejoin="round"></path>
                            </g>
                        </g>
                    </g>
                </g>
            </g>
        </g>
    </g>
</svg>