<?xml version="1.0" encoding="UTF-8" standalone="no"?>
<svg width="118px" height="102px" viewBox="0 0 118 102" version="1.1" xmlns="http://www.w3.org/2000/svg" xmlns:xlink="http://www.w3.org/1999/xlink">
    <!-- Generator: sketchtool 41 (35326) - http://www.bohemiancoding.com/sketch -->
    <title>6A5898C4-D598-49D7-A6F6-DFAB0DF46040</title>
    <desc>Created with sketchtool.</desc>
    <defs>
        <path d="M44,40 L44,52 L16,52 L16,12 L44,12 L44,24 L44,40 Z M44,40 L108,40 L108,24 L44,24 L44,40 Z" id="path-1"></path>
        <filter x="-50%" y="-50%" width="200%" height="200%" filterUnits="objectBoundingBox" id="filter-2">
            <feOffset dx="-6" dy="0" in="SourceAlpha" result="shadowOffsetInner1"></feOffset>
            <feComposite in="shadowOffsetInner1" in2="SourceAlpha" operator="arithmetic" k2="-1" k3="1" result="shadowInnerInner1"></feComposite>
            <feColorMatrix values="0 0 0 0 0   0 0 0 0 0   0 0 0 0 0  0 0 0 0.08 0" type="matrix" in="shadowInnerInner1"></feColorMatrix>
        </filter>
        <path d="M116,22 L116,42 C116,43.1 115.1,44 114,44 L110,44 C108.9,44 108,43.1 108,42 L108,40 L108,24 L108,22 C108,20.9 108.9,20 110,20 L114,20 C115.1,20 116,20.9 116,22 Z M48,2 L48,10 C48,11.1 47.1,12 46,12 L44,12 L16,12 L14,12 C12.9,12 12,11.1 12,10 L12,2 C12,0.9 12.9,0 14,0 L46,0 C47.1,0 48,0.9 48,2 Z M48,54 L48,62 C48,63.1 47.1,64 46,64 L14,64 C12.9,64 12,63.1 12,62 L12,54 C12,52.9 12.9,52 14,52 L16,52 L44,52 L46,52 C47.1,52 48,52.9 48,54 Z" id="path-3"></path>
        <filter x="-50%" y="-50%" width="200%" height="200%" filterUnits="objectBoundingBox" id="filter-4">
            <feOffset dx="-6" dy="0" in="SourceAlpha" result="shadowOffsetInner1"></feOffset>
            <feComposite in="shadowOffsetInner1" in2="SourceAlpha" operator="arithmetic" k2="-1" k3="1" result="shadowInnerInner1"></feComposite>
            <feColorMatrix values="0 0 0 0 0   0 0 0 0 0   0 0 0 0 0  0 0 0 0.1 0" type="matrix" in="shadowInnerInner1"></feColorMatrix>
        </filter>
        <path d="M60,92 L60,100 L0,100 L0,92 C0,89.8 1.8,88 4,88 L56,88 C58.2,88 60,89.8 60,92" id="path-5"></path>
        <filter x="-50%" y="-50%" width="200%" height="200%" filterUnits="objectBoundingBox" id="filter-6">
            <feOffset dx="-6" dy="0" in="SourceAlpha" result="shadowOffsetInner1"></feOffset>
            <feComposite in="shadowOffsetInner1" in2="SourceAlpha" operator="arithmetic" k2="-1" k3="1" result="shadowInnerInner1"></feComposite>
            <feColorMatrix values="0 0 0 0 0   0 0 0 0 0   0 0 0 0 0  0 0 0 0.12 0" type="matrix" in="shadowInnerInner1"></feColorMatrix>
        </filter>
    </defs>
    <g id="Design" stroke="none" stroke-width="1" fill="none" fill-rule="evenodd">
        <g id="2.1-Services" transform="translate(-121.000000, -530.000000)">
            <g id="Group-17" transform="translate(8.000000, 142.000000)">
                <g id="Group-8" transform="translate(0.000000, 368.000000)">
                    <g id="Group-5-Copy-2">
                        <g id="Group-4">
                            <g id="Group" transform="translate(114.000000, 21.000000)">
                                <g id="fill">
                                    <g id="Combined-Shape">
                                        <use fill="#E4F2DE" fill-rule="evenodd" xlink:href="#path-1"></use>
                                        <use fill="black" fill-opacity="1" filter="url(#filter-2)" xlink:href="#path-1"></use>
                                    </g>
                                    <g id="Combined-Shape">
                                        <use fill="#80D6FA" fill-rule="evenodd" xlink:href="#path-3"></use>
                                        <use fill="black" fill-opacity="1" filter="url(#filter-4)" xlink:href="#path-3"></use>
                                    </g>
                                    <g id="Fill-8">
                                        <use fill="#AAB1BA" fill-rule="evenodd" xlink:href="#path-5"></use>
                                        <use fill="black" fill-opacity="1" filter="url(#filter-6)" xlink:href="#path-5"></use>
                                    </g>
                                </g>
                                <path d="M38,80 L40,72 L38,80 L38,80 L38,80 L38,80 Z M22,80 L20,72 L22,80 L22,80 L22,80 L22,80 Z M0,72 L8,80 L0,72 L0,72 L0,72 L0,72 Z M52,80 L60,72 L52,80 L52,80 L52,80 L52,80 Z M60,100 L60,92 C60,89.792 58.208,88 56,88 L4,88 C1.792,88 0,89.792 0,92 L0,100 L60,100 L60,100 L60,100 L60,100 L60,100 Z M52,40 L108,40 L108,42 C108,43.106 108.894,44 110,44 L114,44 C115.106,44 116,43.106 116,42 L116,22 C116,20.896 115.106,20 114,20 L110,20 C108.894,20 108,20.896 108,22 L108,32 M52,24 L100,24 L52,24 L52,24 L52,24 L52,24 Z M16,20 L16,52 L14,52 C12.894,52 12,52.896 12,54 L12,62 C12,63.106 12.894,64 14,64 L46,64 C47.106,64 48,63.106 48,62 L48,54 C48,52.896 47.106,52 46,52 L24,52 M36,12 L14,12 C12.894,12 12,11.106 12,10 L12,2 C12,0.896 12.894,0 14,0 L46,0 C47.106,0 48,0.896 48,2 L48,10 C48,11.106 47.106,12 46,12 L44,12 L44,44" id="stroke" stroke="#51565F" stroke-width="2" stroke-linecap="round" stroke-linejoin="round"></path>
                            </g>
                        </g>
                    </g>
                </g>
            </g>
        </g>
    </g>
</svg>