<?xml version="1.0" encoding="UTF-8" standalone="no"?>
<svg width="110px" height="118px" viewBox="0 0 110 118" version="1.1" xmlns="http://www.w3.org/2000/svg" xmlns:xlink="http://www.w3.org/1999/xlink">
    <!-- Generator: sketchtool 41 (35326) - http://www.bohemiancoding.com/sketch -->
    <title>69691FE5-ABE1-4084-B361-FA88C82328BB</title>
    <desc>Created with sketchtool.</desc>
    <defs>
        <path d="M102.1796,51.7198 C105.6596,53.8198 107.9996,57.6398 107.9996,61.9998 C107.9996,66.6398 105.3596,70.6598 101.4996,72.6598 C105.2796,74.0798 107.9996,77.7198 107.9996,81.9998 C107.9996,87.5198 103.5196,91.9998 97.9996,91.9998 C97.2196,91.9998 96.4596,91.8798 95.7196,91.7198 C97.1196,93.4398 97.9996,95.5998 97.9996,97.9998 C97.9996,103.5198 93.5196,107.9998 87.9996,107.9998 C84.7196,107.9998 81.8196,106.3998 79.9996,103.9398 C79.9996,103.9998 79.9396,103.9998 79.9396,103.9998 C79.4196,110.6998 73.8396,115.9998 66.9996,115.9998 C63.9396,115.9998 61.1196,114.9398 58.8996,113.1798 C58.8996,113.1798 53.9996,109.3198 53.9996,103.9998 L53.9996,9.9998 C53.9996,9.9998 55.9996,-0.0002 64.9996,-0.0002 C70.7596,-0.0002 75.4796,4.4398 75.9596,10.0798 C77.6396,8.7998 79.7196,7.9998 81.9996,7.9998 C87.5196,7.9998 91.9996,12.4798 91.9996,17.9998 C91.9996,18.7398 91.8996,19.4798 91.7396,20.1798 C96.4396,20.9998 99.9996,25.0798 99.9996,29.9998 C99.9996,32.5598 98.9996,34.8798 97.4196,36.6398 C101.2596,38.0398 103.9996,41.6798 103.9996,45.9998 C103.9996,48.1398 103.3196,50.0998 102.1796,51.7198" id="path-1"></path>
        <filter x="-50%" y="-50%" width="200%" height="200%" filterUnits="objectBoundingBox" id="filter-2">
            <feOffset dx="-6" dy="0" in="SourceAlpha" result="shadowOffsetInner1"></feOffset>
            <feComposite in="shadowOffsetInner1" in2="SourceAlpha" operator="arithmetic" k2="-1" k3="1" result="shadowInnerInner1"></feComposite>
            <feColorMatrix values="0 0 0 0 0   0 0 0 0 0   0 0 0 0 0  0 0 0 0.1 0" type="matrix" in="shadowInnerInner1"></feColorMatrix>
        </filter>
        <path d="M54,10 L54,104 C53.48,110.72 47.84,116 41,116 C34.16,116 28.58,110.7 28.06,104 L28,104 C26.18,106.4 23.28,108 20,108 C14.48,108 10,103.52 10,98 C10,95.6 10.88,93.44 12.28,91.72 C11.54,91.88 10.78,92 10,92 C4.48,92 0,87.52 0,82 C0,77.72 2.72,74.08 6.5,72.66 C2.64,70.66 0,66.64 0,62 C0,57.64 2.34,53.82 5.82,51.72 C4.68,50.1 4,48.14 4,46 C4,41.68 6.74,38.04 10.58,36.64 C9,34.88 8,32.56 8,30 C8,25.08 11.56,21 16.26,20.18 C16.1,19.48 16,18.74 16,18 C16,12.48 20.48,8 26,8 C28.28,8 30.36,8.8 32.04,10.08 C32.52,4.44 37.24,0 43,0 C46.1,0 48.36,1.18 50,2.74 C50,2.74 54,7.06 54,10" id="path-3"></path>
        <filter x="-50%" y="-50%" width="200%" height="200%" filterUnits="objectBoundingBox" id="filter-4">
            <feOffset dx="-6" dy="0" in="SourceAlpha" result="shadowOffsetInner1"></feOffset>
            <feComposite in="shadowOffsetInner1" in2="SourceAlpha" operator="arithmetic" k2="-1" k3="1" result="shadowInnerInner1"></feComposite>
            <feColorMatrix values="0 0 0 0 0   0 0 0 0 0   0 0 0 0 0  0 0 0 0.1 0" type="matrix" in="shadowInnerInner1"></feColorMatrix>
        </filter>
    </defs>
    <g id="Design" stroke="none" stroke-width="1" fill="none" fill-rule="evenodd">
        <g id="2.1-Services" transform="translate(-123.000000, -1629.000000)">
            <g id="Group-5-Copy-8" transform="translate(8.000000, 1614.000000)">
                <g id="Group-4">
                    <g id="card1">
                        <g id="Group-15">
                            <g id="Group" transform="translate(116.000000, 12.000000)">
                                <g id="fill" transform="translate(0.000000, 4.000000)">
                                    <g id="Fill-1">
                                        <use fill="#FFD0A1" fill-rule="evenodd" xlink:href="#path-1"></use>
                                        <use fill="black" fill-opacity="1" filter="url(#filter-2)" xlink:href="#path-1"></use>
                                    </g>
                                    <g id="Fill-4">
                                        <use fill="#FFD0A1" fill-rule="evenodd" xlink:href="#path-3"></use>
                                        <use fill="black" fill-opacity="1" filter="url(#filter-4)" xlink:href="#path-3"></use>
                                    </g>
                                </g>
                                <path d="M36,92 C32,92 28,96 28,100 M20,40 C24,40 28,36 28,32 M44,80 C44,76 40,72 36,72 M36,56 C40,56 44,52 44,48 M16,52 C16,56 20,60 24,60 M24,76 C20,76 16,80 16,84 M44,30 C44,26 40,22 36,22 M54,14 L54,108 M58.898,117.18 C61.128,118.946 63.946,120 67,120 C73.842,120 79.43,114.71 79.942,108 C79.942,108 80,108 80,107.946 C81.822,110.394 84.712,112 88,112 C93.524,112 98,107.522 98,102 C98,99.606 97.124,97.436 95.718,95.714 C96.456,95.886 97.212,96 98,96 C103.524,96 108,91.522 108,86 C108,81.71 105.286,78.082 101.492,76.662 C105.356,74.668 108,70.646 108,66 C108,61.636 105.664,57.828 102.18,55.728 C103.318,54.104 104,52.134 104,50 C104,45.686 101.254,42.044 97.426,40.64 C99.01,38.872 100,36.56 100,34 C100,29.076 96.434,25.004 91.746,24.176 C91.902,23.474 92,22.75 92,22 C92,16.478 87.524,12 82,12 C79.716,12 77.636,12.794 75.954,14.084 C75.486,8.438 70.766,4 65,4 C56,4 54,14 54,14 M50.004,6.732 C48.36,5.182 46.094,4 43,4 C37.234,4 32.514,8.438 32.046,14.084 C30.364,12.794 28.284,12 26,12 C20.476,12 16,16.478 16,22 C16,22.75 16.098,23.474 16.254,24.176 C11.566,25.004 8,29.076 8,34 C8,36.56 8.99,38.872 10.574,40.64 C6.746,42.044 4,45.686 4,50 C4,52.134 4.682,54.104 5.82,55.728 C2.336,57.828 0,61.636 0,66 C0,70.646 2.644,74.668 6.508,76.662 C2.714,78.082 0,81.71 0,86 C0,91.522 4.476,96 10,96 C10.788,96 11.544,95.886 12.282,95.714 C10.876,97.436 10,99.606 10,102 C10,107.522 14.476,112 20,112 C23.288,112 26.178,110.394 28,108 L28.058,108 C28.57,114.71 34.158,120 41,120 C47.842,120 53.488,114.71 54,108 M80,100 C80,96 76,92 72,92 M80,32 C80,36 84,40 88,40 M72,72 C68,72 64,76 64,80 M64,48 C64,52 68,56 72,56 M84,60 C88,60 92,56 92,52 M92,84 C92,80 88,76 84,76 M64,30 C64,26 68,22 72,22" id="stroke" stroke="#51565F" stroke-width="2" stroke-linecap="round" stroke-linejoin="round"></path>
                            </g>
                        </g>
                    </g>
                </g>
            </g>
        </g>
    </g>
</svg>