<?xml version="1.0" encoding="UTF-8" standalone="no"?>
<svg width="102px" height="102px" viewBox="0 0 102 102" version="1.1" xmlns="http://www.w3.org/2000/svg" xmlns:xlink="http://www.w3.org/1999/xlink">
    <!-- Generator: sketchtool 41 (35326) - http://www.bohemiancoding.com/sketch -->
    <title>9C943280-CFCE-40A9-BB28-8D933C8B5157</title>
    <desc>Created with sketchtool.</desc>
    <defs>
        <circle id="path-1" cx="50" cy="50" r="50"></circle>
        <filter x="-50%" y="-50%" width="200%" height="200%" filterUnits="objectBoundingBox" id="filter-2">
            <feOffset dx="-6" dy="0" in="SourceAlpha" result="shadowOffsetInner1"></feOffset>
            <feComposite in="shadowOffsetInner1" in2="SourceAlpha" operator="arithmetic" k2="-1" k3="1" result="shadowInnerInner1"></feComposite>
            <feColorMatrix values="0 0 0 0 0   0 0 0 0 0   0 0 0 0 0  0 0 0 0.1 0" type="matrix" in="shadowInnerInner1"></feColorMatrix>
        </filter>
        <path d="M52.2998,81.7802 C54.0398,83.5002 55.7598,86.9402 54.0398,88.6602 C52.2998,90.4002 48.8598,90.4002 47.1398,88.6602 C44.6998,86.2402 50.5798,80.0402 52.2998,81.7802 Z M84.4804,53.8808 C87.9204,57.3408 81.0404,59.0608 79.3004,64.2408 C77.5804,69.4008 70.6804,69.4008 68.9604,67.6808 C67.2404,65.9608 63.8004,64.2408 60.3404,62.5008 C56.9004,60.7808 60.3404,57.3408 63.8004,59.0608 C67.2404,60.7808 68.5604,53.8808 72.4204,53.8808 C74.1404,53.8808 81.0404,50.4408 84.4804,53.8808 Z M68.9404,4.1602 C83.2204,10.0002 94.1804,22.2602 98.2604,37.3602 C91.9004,40.0602 81.7404,41.3002 79.3004,40.1002 C75.8604,38.3802 75.8604,29.7602 69.7604,29.4802 C67.3204,29.3802 64.5804,39.8202 61.1404,41.5402 C57.7004,43.2802 55.9604,36.3802 52.5204,31.2002 C49.0804,26.0402 57.7004,20.8602 61.1404,20.8602 C64.5804,20.8602 64.5804,12.2402 64.5804,10.5202 C64.5804,8.8002 61.2204,6.7802 62.2604,2.0002 L68.9404,4.1602 Z M50,100.4404 C44,100.4404 37.96,98.9804 37.96,98.9804 C16.16,93.6004 0,73.9004 0,50.4404 C0,48.3804 0.1,46.6204 0.34,44.6204 L0.4,44.6204 C6.82,44.3204 14.4,45.5204 12.06,47.8604 C8.62,51.3004 10.34,65.1004 17.24,59.9204 C24.14,54.7604 27.58,47.8604 25.86,42.6804 C24.14,37.5004 37.92,35.7804 37.92,44.4004 C37.92,53.0204 34.48,51.3004 32.76,56.4804 C31.04,61.6404 34.48,61.6404 36.2,63.3804 C37.92,65.1004 43.1,68.5404 37.92,80.6204 C34.08,89.6004 43.34,96.2404 50,100.4404 Z" id="path-3"></path>
        <filter x="-50%" y="-50%" width="200%" height="200%" filterUnits="objectBoundingBox" id="filter-4">
            <feOffset dx="-6" dy="0" in="SourceAlpha" result="shadowOffsetInner1"></feOffset>
            <feComposite in="shadowOffsetInner1" in2="SourceAlpha" operator="arithmetic" k2="-1" k3="1" result="shadowInnerInner1"></feComposite>
            <feColorMatrix values="0 0 0 0 0   0 0 0 0 0   0 0 0 0 0  0 0 0 0.1 0" type="matrix" in="shadowInnerInner1"></feColorMatrix>
        </filter>
    </defs>
    <g id="Design" stroke="none" stroke-width="1" fill="none" fill-rule="evenodd">
        <g id="2.1-Services" transform="translate(-129.000000, -901.000000)">
            <g id="Group-17" transform="translate(8.000000, 142.000000)">
                <g id="Group-5-Copy-4" transform="translate(0.000000, 736.000000)">
                    <g id="Group-4">
                        <g id="card1">
                            <g id="Group-10">
                                <g id="Group" transform="translate(122.000000, 24.000000)">
                                    <g id="fill">
                                        <g id="Oval">
                                            <use fill="#80D6FA" fill-rule="evenodd" xlink:href="#path-1"></use>
                                            <use fill="black" fill-opacity="1" filter="url(#filter-2)" xlink:href="#path-1"></use>
                                        </g>
                                        <g id="Combined-Shape">
                                            <use fill="#50DD8E" fill-rule="evenodd" xlink:href="#path-3"></use>
                                            <use fill="black" fill-opacity="1" filter="url(#filter-4)" xlink:href="#path-3"></use>
                                        </g>
                                    </g>
                                    <path d="M1.986,35.998 C8.042,15.198 27.246,0 50,0 C54.23,0 58.336,0.524 62.258,1.514 C61.208,6.322 64.59,8.35 64.59,10.074 C64.59,11.798 64.59,20.418 61.14,20.418 C57.696,20.418 49.074,25.592 52.52,30.764 C55.968,35.936 57.696,42.834 61.14,41.11 C64.59,39.384 67.328,28.932 69.762,29.04 C75.86,29.31 75.86,37.93 79.308,39.656 C81.738,40.87 91.89,39.624 98.27,36.916 C94.188,21.822 83.218,9.56 68.938,3.712 M99.524,43.078 C99.836,45.34 100,47.652 100,50 C100,77.616 77.614,100 50,100 C43.332,95.792 34.078,89.162 37.93,80.172 C43.102,68.104 37.93,64.656 36.208,62.93 C34.48,61.208 31.036,61.208 32.758,56.034 C34.48,50.862 37.93,52.586 37.93,43.966 C37.93,35.344 24.136,37.07 25.86,42.242 C27.586,47.414 24.136,54.31 17.242,59.482 C10.344,64.656 8.622,50.862 12.066,47.414 C14.398,45.084 6.786,43.884 0.348,44.18 C0.102,46.182 0,47.93 0,50 C0,73.464 16.164,93.154 37.964,98.542 M54.032,88.23 C55.754,86.506 54.032,83.058 52.304,81.334 C50.582,79.61 44.696,85.792 47.132,88.23 C48.86,89.954 52.304,89.954 54.032,88.23 L54.032,88.23 L54.032,88.23 L54.032,88.23 L54.032,88.23 Z M84.48,53.448 C87.93,56.896 81.036,58.622 79.308,63.792 C77.586,68.966 70.688,68.966 68.964,67.242 C67.242,65.518 63.792,63.792 60.344,62.07 C56.894,60.344 60.344,56.896 63.792,58.622 C67.242,60.344 68.558,53.448 72.414,53.448 C74.136,53.448 81.036,50 84.48,53.448 L84.48,53.448 L84.48,53.448 L84.48,53.448 L84.48,53.448 Z" id="stroke" stroke="#51565F" stroke-width="2" stroke-linecap="round" stroke-linejoin="round"></path>
                                </g>
                            </g>
                        </g>
                    </g>
                </g>
            </g>
        </g>
    </g>
</svg>