<?xml version="1.0" encoding="UTF-8" standalone="no"?>
<svg width="118px" height="118px" viewBox="0 0 118 118" version="1.1" xmlns="http://www.w3.org/2000/svg" xmlns:xlink="http://www.w3.org/1999/xlink">
    <!-- Generator: sketchtool 41 (35326) - http://www.bohemiancoding.com/sketch -->
    <title>A681870B-495D-4006-AB9A-F1F4BFCC0010</title>
    <desc>Created with sketchtool.</desc>
    <defs>
        <polygon id="path-1" points="55.9992 16.0002 11.9992 16.0002 11.9992 56.0002 24.0012 56.0002 91.9992 56.0002 103.9992 56.0002 103.9992 16.0002"></polygon>
        <filter x="-50%" y="-50%" width="200%" height="200%" filterUnits="objectBoundingBox" id="filter-2">
            <feOffset dx="-6" dy="0" in="SourceAlpha" result="shadowOffsetInner1"></feOffset>
            <feComposite in="shadowOffsetInner1" in2="SourceAlpha" operator="arithmetic" k2="-1" k3="1" result="shadowInnerInner1"></feComposite>
            <feColorMatrix values="0 0 0 0 0   0 0 0 0 0   0 0 0 0 0  0 0 0 0.08 0" type="matrix" in="shadowInnerInner1"></feColorMatrix>
        </filter>
        <path d="M84,40 L92,40 L92,28 L84,28 L84,40 Z M44,40 L52,40 L52,28 L44,28 L44,40 Z M64,40 L72,40 L72,28 L64,28 L64,40 Z M24,40 L32,40 L32,28 L24,28 L24,40 Z" id="path-3"></path>
        <filter x="-50%" y="-50%" width="200%" height="200%" filterUnits="objectBoundingBox" id="filter-4">
            <feOffset dx="-6" dy="0" in="SourceAlpha" result="shadowOffsetInner1"></feOffset>
            <feComposite in="shadowOffsetInner1" in2="SourceAlpha" operator="arithmetic" k2="-1" k3="1" result="shadowInnerInner1"></feComposite>
            <feColorMatrix values="0 0 0 0 0   0 0 0 0 0   0 0 0 0 0  0 0 0 0.12 0" type="matrix" in="shadowInnerInner1"></feColorMatrix>
        </filter>
        <polygon id="path-5" points="56 8 70 8 70 0 56 0"></polygon>
        <filter x="-50%" y="-50%" width="200%" height="200%" filterUnits="objectBoundingBox" id="filter-6">
            <feOffset dx="-6" dy="0" in="SourceAlpha" result="shadowOffsetInner1"></feOffset>
            <feComposite in="shadowOffsetInner1" in2="SourceAlpha" operator="arithmetic" k2="-1" k3="1" result="shadowInnerInner1"></feComposite>
            <feColorMatrix values="0 0 0 0 0   0 0 0 0 0   0 0 0 0 0  0 0 0 0.1 0" type="matrix" in="shadowInnerInner1"></feColorMatrix>
        </filter>
        <path d="M92,108 L104,108 L104,56 L92,56 L92,108 Z M12,108 L24,108 L24,56 L12,56 L12,108 Z" id="path-7"></path>
        <filter x="-50%" y="-50%" width="200%" height="200%" filterUnits="objectBoundingBox" id="filter-8">
            <feOffset dx="-6" dy="0" in="SourceAlpha" result="shadowOffsetInner1"></feOffset>
            <feComposite in="shadowOffsetInner1" in2="SourceAlpha" operator="arithmetic" k2="-1" k3="1" result="shadowInnerInner1"></feComposite>
            <feColorMatrix values="0 0 0 0 0   0 0 0 0 0   0 0 0 0 0  0 0 0 0.08 0" type="matrix" in="shadowInnerInner1"></feColorMatrix>
        </filter>
        <polygon id="path-9" points="0 116 116 116 116 108 0 108"></polygon>
        <filter x="-50%" y="-50%" width="200%" height="200%" filterUnits="objectBoundingBox" id="filter-10">
            <feOffset dx="-6" dy="0" in="SourceAlpha" result="shadowOffsetInner1"></feOffset>
            <feComposite in="shadowOffsetInner1" in2="SourceAlpha" operator="arithmetic" k2="-1" k3="1" result="shadowInnerInner1"></feComposite>
            <feColorMatrix values="0 0 0 0 0   0 0 0 0 0   0 0 0 0 0  0 0 0 0.08 0" type="matrix" in="shadowInnerInner1"></feColorMatrix>
        </filter>
        <polygon id="path-11" points="24 108 92 108 92 56 24 56"></polygon>
        <filter x="-50%" y="-50%" width="200%" height="200%" filterUnits="objectBoundingBox" id="filter-12">
            <feOffset dx="-6" dy="0" in="SourceAlpha" result="shadowOffsetInner1"></feOffset>
            <feComposite in="shadowOffsetInner1" in2="SourceAlpha" operator="arithmetic" k2="-1" k3="1" result="shadowInnerInner1"></feComposite>
            <feColorMatrix values="0 0 0 0 0   0 0 0 0 0   0 0 0 0 0  0 0 0 0.12 0" type="matrix" in="shadowInnerInner1"></feColorMatrix>
        </filter>
        <path d="M14,24 L14,0 C24,0 28,4 28,4 L28,40 L14,40 L14,24 Z M14,24 L14,40 L0,40 L0,4 C0,4 4,0 14,0 L14,24 Z" id="path-13"></path>
        <filter x="-50%" y="-50%" width="200%" height="200%" filterUnits="objectBoundingBox" id="filter-14">
            <feOffset dx="-6" dy="0" in="SourceAlpha" result="shadowOffsetInner1"></feOffset>
            <feComposite in="shadowOffsetInner1" in2="SourceAlpha" operator="arithmetic" k2="-1" k3="1" result="shadowInnerInner1"></feComposite>
            <feColorMatrix values="0 0 0 0 0   0 0 0 0 0   0 0 0 0 0  0 0 0 0.1 0" type="matrix" in="shadowInnerInner1"></feColorMatrix>
        </filter>
    </defs>
    <g id="Design" stroke="none" stroke-width="1" fill="none" fill-rule="evenodd">
        <g id="2.1-Services" transform="translate(-121.000000, -1808.000000)">
            <g id="Group-5-Copy-9" transform="translate(8.000000, 1798.000000)">
                <g id="Group-4">
                    <g id="card1">
                        <g id="Group-16">
                            <g id="Group" transform="translate(114.000000, 11.000000)">
                                <g id="fill">
                                    <g id="Fill-2">
                                        <use fill="#F2EDDA" fill-rule="evenodd" xlink:href="#path-1"></use>
                                        <use fill="black" fill-opacity="1" filter="url(#filter-2)" xlink:href="#path-1"></use>
                                    </g>
                                    <g id="Combined-Shape">
                                        <use fill="#AAB1BA" fill-rule="evenodd" xlink:href="#path-3"></use>
                                        <use fill="black" fill-opacity="1" filter="url(#filter-4)" xlink:href="#path-3"></use>
                                    </g>
                                    <g id="Fill-6">
                                        <use fill="#80D6FA" fill-rule="evenodd" xlink:href="#path-5"></use>
                                        <use fill="black" fill-opacity="1" filter="url(#filter-6)" xlink:href="#path-5"></use>
                                    </g>
                                    <g id="Combined-Shape">
                                        <use fill="#F2EDDA" fill-rule="evenodd" xlink:href="#path-7"></use>
                                        <use fill="black" fill-opacity="1" filter="url(#filter-8)" xlink:href="#path-7"></use>
                                    </g>
                                    <g id="Fill-8-Copy-2">
                                        <use fill="#F2EDDA" fill-rule="evenodd" xlink:href="#path-9"></use>
                                        <use fill="black" fill-opacity="1" filter="url(#filter-10)" xlink:href="#path-9"></use>
                                    </g>
                                    <g id="Fill-8-Copy">
                                        <use fill="#AAB1BA" fill-rule="evenodd" xlink:href="#path-11"></use>
                                        <use fill="black" fill-opacity="1" filter="url(#filter-12)" xlink:href="#path-11"></use>
                                    </g>
                                    <g id="Group-13" transform="translate(44.000000, 68.000000)">
                                        <g id="Combined-Shape">
                                            <use fill="#80D6FA" fill-rule="evenodd" xlink:href="#path-13"></use>
                                            <use fill="black" fill-opacity="1" filter="url(#filter-14)" xlink:href="#path-13"></use>
                                        </g>
                                    </g>
                                </g>
                                <path d="M62,8 L70,8 L70,0 L56,0 L56,16 M44,40 L52,40 L52,28 L44,28 L44,40 L44,40 L44,40 L44,40 Z M64,40 L72,40 L72,28 L64,28 L64,40 L64,40 L64,40 L64,40 Z M84,40 L92,40 L92,28 L84,28 L84,40 L84,40 L84,40 L84,40 Z M24,40 L32,40 L32,28 L24,28 L24,40 L24,40 L24,40 L24,40 Z M60,92 L56,92 L60,92 L60,92 L60,92 L60,92 Z M58,100 L58,68 L58,100 L58,100 L58,100 L58,100 Z M72,100 L72,72 C72,72 68,68 58,68 C48,68 44,72 44,72 L44,100 M88,108 L108,108 L88,108 L88,108 L88,108 L88,108 Z M92,108 L92,56 L92,108 L92,108 L92,108 L92,108 Z M104,108 L104,56 L104,108 L104,108 L104,108 L104,108 Z M8,108 L28,108 L8,108 L8,108 L8,108 L8,108 Z M8,56 L108,56 L8,56 L8,56 L8,56 L8,56 Z M80,108 L36,108 L80,108 L80,108 L80,108 L80,108 Z M104,48 L104,16 L12,16 L12,48 M116,116 L0,116 L116,116 L116,116 L116,116 L116,116 Z M12,108 L12,56 L12,108 L12,108 L12,108 L12,108 Z M24,108 L24,56 L24,108 L24,108 L24,108 L24,108 Z" id="stroke" stroke="#51565F" stroke-width="2" stroke-linecap="round" stroke-linejoin="round"></path>
                            </g>
                        </g>
                    </g>
                </g>
            </g>
        </g>
    </g>
</svg>